<svg width="430" height="132" viewBox="0 0 430 132" fill="none" xmlns="http://www.w3.org/2000/svg">
<mask id="path-1-outside-1_4_2" maskUnits="userSpaceOnUse" x="0" y="0" width="430" height="132" fill="black">
<rect fill="white" width="430" height="132"/>
<path d="M113.438 69.0625C115.438 69.0625 116.438 70.1875 116.438 72.4375C116.438 73.9375 115.917 75.8333 114.875 78.125C113.875 80.375 112.417 82.5 110.5 84.5C108.583 86.4583 106.375 88.5 103.875 90.625C101.417 92.75 98.5208 94.9792 95.1875 97.3125C91.8958 99.6458 88.25 101.958 84.25 104.25C80.25 106.542 76 108.604 71.5 110.438C61.5417 114.521 51.8958 116.562 42.5625 116.562C35.4375 116.562 29.2083 114.708 23.875 111C18.2917 107.125 15.5 102.417 15.5 96.875C15.5 88.1667 20.1875 79.8958 29.5625 72.0625C37.6458 65.3125 47.1667 60.0833 58.125 56.375C64.7917 54.125 70.4375 53 75.0625 53C78.8125 53 81.9792 53.9167 84.5625 55.75C87.3125 57.75 88.6875 60.4375 88.6875 63.8125C88.6875 69.1042 84.5 74.9583 76.125 81.375C74.7917 82.4167 73.5833 83.2917 72.5 84L70.25 85.5C66.0833 88.4167 59.75 91.6875 51.25 95.3125C53.875 96.6875 56.3125 97.375 58.5625 97.375C60.8542 97.375 62.8958 97.1042 64.6875 96.5625C66.5208 96.0208 68.5833 95.25 70.875 94.25C73.1667 93.25 75.6042 92.0625 78.1875 90.6875C80.8125 89.2708 83.4583 87.7292 86.125 86.0625C92.0833 82.3542 97.25 78.5625 101.625 74.6875C103.917 72.5625 106.833 70.875 110.375 69.625C111.542 69.25 112.562 69.0625 113.438 69.0625ZM44.5 86.625L47.9375 84.875C49.0625 84.2917 50.0625 83.75 50.9375 83.25C59.3542 78.4167 64.1458 75.4375 65.3125 74.3125C66.4792 73.1875 67.0625 72.4167 67.0625 72C67.0625 71.5417 66.9375 71.0208 66.6875 70.4375C66.4375 69.8542 66.1042 69.3333 65.6875 68.875C64.6875 67.7083 63.625 67.125 62.5 67.125C61.375 67.125 60.125 67.3333 58.75 67.75C57.4167 68.1667 56.0625 68.75 54.6875 69.5C53.3125 70.2083 51.9792 71.0833 50.6875 72.125C49.4375 73.125 48.3333 74.2083 47.375 75.375C45.1667 78 44.0625 80.2708 44.0625 82.1875C44.0625 84.1042 44.2083 85.5833 44.5 86.625ZM175.25 70.875C177.917 70.875 179.25 71.9792 179.25 74.1875C179.25 76.8958 177.625 80.125 174.375 83.875C169 90.125 162.667 96.2083 155.375 102.125C143.5 111.625 132.896 116.375 123.562 116.375C116.854 116.375 111.354 113.458 107.062 107.625C102.604 101.542 100.375 93.375 100.375 83.125C100.375 69.6667 106.938 54.7917 120.062 38.5C128.396 28.125 136.25 21.0833 143.625 17.375C145.917 16.2083 147.667 15.625 148.875 15.625C150.125 15.625 151.25 15.8333 152.25 16.25C153.292 16.625 154.25 17.1667 155.125 17.875C157.167 19.5833 158.188 21.6458 158.188 24.0625C158.188 26.4792 157.521 29.3542 156.188 32.6875C154.854 35.9792 152.917 39.5 150.375 43.25C145 51.2083 137.729 58.8333 128.562 66.125C126.188 70.6667 125 76.125 125 82.5C125 85.375 125.917 88.0833 127.75 90.625C129.625 93.1667 131.688 94.4375 133.938 94.4375C137.021 94.4375 142.917 91.25 151.625 84.875L162.75 76.3125C167.292 72.6875 171.458 70.875 175.25 70.875ZM219.562 42.75C218.354 43.75 217.042 44.5833 215.625 45.25C214.208 45.875 212.625 46.1875 210.875 46.1875C209.125 46.1875 207.438 45.8958 205.812 45.3125C204.188 44.7292 202.771 43.9167 201.562 42.875C198.938 40.625 197.625 37.75 197.625 34.25C197.625 28.875 202.125 24.875 211.125 22.25C214.167 21.3333 216.667 20.875 218.625 20.875C220.583 20.875 222.042 21.1042 223 21.5625C224 21.9792 224.812 22.5417 225.438 23.25C226.688 24.6667 227.312 26.125 227.312 27.625C227.312 29.0833 227.125 30.4167 226.75 31.625C226.417 32.8333 225.917 34.0833 225.25 35.375C224.583 36.6667 223.771 37.9583 222.812 39.25C221.854 40.5417 220.771 41.7083 219.562 42.75ZM203.812 111.562C200.646 113.188 197.562 114.479 194.562 115.438C191.562 116.438 188.604 116.938 185.688 116.938C182.812 116.938 179.812 116.25 176.688 114.875C173.604 113.458 170.854 111.583 168.438 109.25C163.062 104.042 160.375 98.25 160.375 91.875C160.375 86 162.125 80.0417 165.625 74C168.833 68.5417 172.917 63.9583 177.875 60.25C182.833 56.5417 187.438 54.6875 191.688 54.6875C197.771 54.6875 201.021 56.3958 201.438 59.8125C201.562 60.8542 201.625 62.0625 201.625 63.4375C201.625 64.8125 201.292 66.3958 200.625 68.1875C200 69.9375 199.167 71.7083 198.125 73.5C197.125 75.25 196 76.9792 194.75 78.6875C193.542 80.3542 192.375 81.875 191.25 83.25C189.083 85.875 187.354 87.7708 186.062 88.9375C186.062 90.3542 187.125 91.8125 189.25 93.3125C191.25 94.7292 192.938 95.4375 194.312 95.4375C195.729 95.4375 197.375 95.1042 199.25 94.4375C201.167 93.7708 203.125 92.875 205.125 91.75C207.167 90.625 209.229 89.3333 211.312 87.875C213.438 86.4167 215.521 84.9167 217.562 83.375L229 74.4375C233.542 71.1458 237.229 69.5 240.062 69.5C241.188 69.5 242.042 69.9167 242.625 70.75C243.25 71.5417 243.562 72.4792 243.562 73.5625C243.562 74.6458 243.021 76.1458 241.938 78.0625C240.854 79.9375 239.354 82.0208 237.438 84.3125C235.562 86.6042 233.354 89 230.812 91.5C228.271 94 225.521 96.4583 222.562 98.875C219.604 101.292 216.521 103.604 213.312 105.812C210.146 107.979 206.979 109.896 203.812 111.562ZM335.688 68.8125C337.562 68.8125 338.5 69.7708 338.5 71.6875C338.5 74.7292 336.5 79.0208 332.5 84.5625C329.708 88.4375 323.958 93.8125 315.25 100.688C304.875 108.812 296.542 112.875 290.25 112.875C285.5 112.875 281.917 110.875 279.5 106.875C278.042 104.458 276.854 100.917 275.938 96.25L270.375 100.25C255.083 110.833 243.667 116.125 236.125 116.125C229.833 116.125 224.792 113.833 221 109.25C217.667 105.125 216 100.188 216 94.4375C216 88.1042 218.167 83.1042 222.5 79.4375C231.333 72.0208 242.312 65.9167 255.438 61.125C260.771 59.1667 264.146 58.1875 265.562 58.1875C266.979 58.1875 268.271 58.4375 269.438 58.9375C270.646 59.3958 271.833 60 273 60.75C275.75 62.625 277.125 64.4375 277.125 66.1875C277.125 67.6042 276.25 68.75 274.5 69.625C273.958 69.9167 273.042 70.3125 271.75 70.8125C270.458 71.3125 268.875 72 267 72.875C261.958 75.25 257.042 78.125 252.25 81.5C248.833 84.4167 247.125 86.75 247.125 88.5C247.125 90.2083 248.333 91.0625 250.75 91.0625C252.75 91.0625 256.75 89.2917 262.75 85.75C262.75 85.75 264.521 84.6667 268.062 82.5C271.854 80.125 274.896 77.9583 277.188 76C277.188 76 278.146 72.875 280.062 66.625C283.604 55.4583 287.542 46.2292 291.875 38.9375C299.542 24.2292 307.25 16.875 315 16.875C317.833 16.875 320.083 17.3958 321.75 18.4375C324.75 20.3125 326.25 22.3958 326.25 24.6875C326.25 26.9375 325.833 29.3333 325 31.875C324.167 34.4167 323.062 36.9375 321.688 39.4375C320.354 41.9375 318.812 44.4167 317.062 46.875L306.375 61C304.583 63.2917 303 65.5208 301.625 67.6875C299.208 72.8958 298 77.3542 298 81.0625C298 86.3958 299.938 89.0625 303.812 89.0625C306.021 89.0625 310 86.75 315.75 82.125L323.125 75.875C326.583 72.7917 330 70.625 333.375 69.375C334.333 69 335.104 68.8125 335.688 68.8125ZM411.188 69.0625C413.188 69.0625 414.188 70.1875 414.188 72.4375C414.188 73.9375 413.667 75.8333 412.625 78.125C411.625 80.375 410.167 82.5 408.25 84.5C406.333 86.4583 404.125 88.5 401.625 90.625C399.167 92.75 396.271 94.9792 392.938 97.3125C389.646 99.6458 386 101.958 382 104.25C378 106.542 373.75 108.604 369.25 110.438C359.292 114.521 349.646 116.562 340.312 116.562C333.188 116.562 326.958 114.708 321.625 111C316.042 107.125 313.25 102.417 313.25 96.875C313.25 88.1667 317.938 79.8958 327.312 72.0625C335.396 65.3125 344.917 60.0833 355.875 56.375C362.542 54.125 368.188 53 372.812 53C376.562 53 379.729 53.9167 382.312 55.75C385.062 57.75 386.438 60.4375 386.438 63.8125C386.438 69.1042 382.25 74.9583 373.875 81.375C372.542 82.4167 371.333 83.2917 370.25 84L368 85.5C363.833 88.4167 357.5 91.6875 349 95.3125C351.625 96.6875 354.062 97.375 356.312 97.375C358.604 97.375 360.646 97.1042 362.438 96.5625C364.271 96.0208 366.333 95.25 368.625 94.25C370.917 93.25 373.354 92.0625 375.938 90.6875C378.562 89.2708 381.208 87.7292 383.875 86.0625C389.833 82.3542 395 78.5625 399.375 74.6875C401.667 72.5625 404.583 70.875 408.125 69.625C409.292 69.25 410.312 69.0625 411.188 69.0625ZM342.25 86.625L345.688 84.875C346.812 84.2917 347.812 83.75 348.688 83.25C357.104 78.4167 361.896 75.4375 363.062 74.3125C364.229 73.1875 364.812 72.4167 364.812 72C364.812 71.5417 364.688 71.0208 364.438 70.4375C364.188 69.8542 363.854 69.3333 363.438 68.875C362.438 67.7083 361.375 67.125 360.25 67.125C359.125 67.125 357.875 67.3333 356.5 67.75C355.167 68.1667 353.812 68.75 352.438 69.5C351.062 70.2083 349.729 71.0833 348.438 72.125C347.188 73.125 346.083 74.2083 345.125 75.375C342.917 78 341.812 80.2708 341.812 82.1875C341.812 84.1042 341.958 85.5833 342.25 86.625Z"/>
</mask>
<path d="M113.438 69.0625C115.438 69.0625 116.438 70.1875 116.438 72.4375C116.438 73.9375 115.917 75.8333 114.875 78.125C113.875 80.375 112.417 82.5 110.5 84.5C108.583 86.4583 106.375 88.5 103.875 90.625C101.417 92.75 98.5208 94.9792 95.1875 97.3125C91.8958 99.6458 88.25 101.958 84.25 104.25C80.25 106.542 76 108.604 71.5 110.438C61.5417 114.521 51.8958 116.562 42.5625 116.562C35.4375 116.562 29.2083 114.708 23.875 111C18.2917 107.125 15.5 102.417 15.5 96.875C15.5 88.1667 20.1875 79.8958 29.5625 72.0625C37.6458 65.3125 47.1667 60.0833 58.125 56.375C64.7917 54.125 70.4375 53 75.0625 53C78.8125 53 81.9792 53.9167 84.5625 55.75C87.3125 57.75 88.6875 60.4375 88.6875 63.8125C88.6875 69.1042 84.5 74.9583 76.125 81.375C74.7917 82.4167 73.5833 83.2917 72.5 84L70.25 85.5C66.0833 88.4167 59.75 91.6875 51.25 95.3125C53.875 96.6875 56.3125 97.375 58.5625 97.375C60.8542 97.375 62.8958 97.1042 64.6875 96.5625C66.5208 96.0208 68.5833 95.25 70.875 94.25C73.1667 93.25 75.6042 92.0625 78.1875 90.6875C80.8125 89.2708 83.4583 87.7292 86.125 86.0625C92.0833 82.3542 97.25 78.5625 101.625 74.6875C103.917 72.5625 106.833 70.875 110.375 69.625C111.542 69.25 112.562 69.0625 113.438 69.0625ZM44.5 86.625L47.9375 84.875C49.0625 84.2917 50.0625 83.75 50.9375 83.25C59.3542 78.4167 64.1458 75.4375 65.3125 74.3125C66.4792 73.1875 67.0625 72.4167 67.0625 72C67.0625 71.5417 66.9375 71.0208 66.6875 70.4375C66.4375 69.8542 66.1042 69.3333 65.6875 68.875C64.6875 67.7083 63.625 67.125 62.5 67.125C61.375 67.125 60.125 67.3333 58.75 67.75C57.4167 68.1667 56.0625 68.75 54.6875 69.5C53.3125 70.2083 51.9792 71.0833 50.6875 72.125C49.4375 73.125 48.3333 74.2083 47.375 75.375C45.1667 78 44.0625 80.2708 44.0625 82.1875C44.0625 84.1042 44.2083 85.5833 44.5 86.625ZM175.25 70.875C177.917 70.875 179.25 71.9792 179.25 74.1875C179.25 76.8958 177.625 80.125 174.375 83.875C169 90.125 162.667 96.2083 155.375 102.125C143.5 111.625 132.896 116.375 123.562 116.375C116.854 116.375 111.354 113.458 107.062 107.625C102.604 101.542 100.375 93.375 100.375 83.125C100.375 69.6667 106.938 54.7917 120.062 38.5C128.396 28.125 136.25 21.0833 143.625 17.375C145.917 16.2083 147.667 15.625 148.875 15.625C150.125 15.625 151.25 15.8333 152.25 16.25C153.292 16.625 154.25 17.1667 155.125 17.875C157.167 19.5833 158.188 21.6458 158.188 24.0625C158.188 26.4792 157.521 29.3542 156.188 32.6875C154.854 35.9792 152.917 39.5 150.375 43.25C145 51.2083 137.729 58.8333 128.562 66.125C126.188 70.6667 125 76.125 125 82.5C125 85.375 125.917 88.0833 127.75 90.625C129.625 93.1667 131.688 94.4375 133.938 94.4375C137.021 94.4375 142.917 91.25 151.625 84.875L162.75 76.3125C167.292 72.6875 171.458 70.875 175.25 70.875ZM219.562 42.75C218.354 43.75 217.042 44.5833 215.625 45.25C214.208 45.875 212.625 46.1875 210.875 46.1875C209.125 46.1875 207.438 45.8958 205.812 45.3125C204.188 44.7292 202.771 43.9167 201.562 42.875C198.938 40.625 197.625 37.75 197.625 34.25C197.625 28.875 202.125 24.875 211.125 22.25C214.167 21.3333 216.667 20.875 218.625 20.875C220.583 20.875 222.042 21.1042 223 21.5625C224 21.9792 224.812 22.5417 225.438 23.25C226.688 24.6667 227.312 26.125 227.312 27.625C227.312 29.0833 227.125 30.4167 226.75 31.625C226.417 32.8333 225.917 34.0833 225.25 35.375C224.583 36.6667 223.771 37.9583 222.812 39.25C221.854 40.5417 220.771 41.7083 219.562 42.75ZM203.812 111.562C200.646 113.188 197.562 114.479 194.562 115.438C191.562 116.438 188.604 116.938 185.688 116.938C182.812 116.938 179.812 116.25 176.688 114.875C173.604 113.458 170.854 111.583 168.438 109.25C163.062 104.042 160.375 98.25 160.375 91.875C160.375 86 162.125 80.0417 165.625 74C168.833 68.5417 172.917 63.9583 177.875 60.25C182.833 56.5417 187.438 54.6875 191.688 54.6875C197.771 54.6875 201.021 56.3958 201.438 59.8125C201.562 60.8542 201.625 62.0625 201.625 63.4375C201.625 64.8125 201.292 66.3958 200.625 68.1875C200 69.9375 199.167 71.7083 198.125 73.5C197.125 75.25 196 76.9792 194.75 78.6875C193.542 80.3542 192.375 81.875 191.25 83.25C189.083 85.875 187.354 87.7708 186.062 88.9375C186.062 90.3542 187.125 91.8125 189.25 93.3125C191.25 94.7292 192.938 95.4375 194.312 95.4375C195.729 95.4375 197.375 95.1042 199.25 94.4375C201.167 93.7708 203.125 92.875 205.125 91.75C207.167 90.625 209.229 89.3333 211.312 87.875C213.438 86.4167 215.521 84.9167 217.562 83.375L229 74.4375C233.542 71.1458 237.229 69.5 240.062 69.5C241.188 69.5 242.042 69.9167 242.625 70.75C243.25 71.5417 243.562 72.4792 243.562 73.5625C243.562 74.6458 243.021 76.1458 241.938 78.0625C240.854 79.9375 239.354 82.0208 237.438 84.3125C235.562 86.6042 233.354 89 230.812 91.5C228.271 94 225.521 96.4583 222.562 98.875C219.604 101.292 216.521 103.604 213.312 105.812C210.146 107.979 206.979 109.896 203.812 111.562ZM335.688 68.8125C337.562 68.8125 338.5 69.7708 338.5 71.6875C338.5 74.7292 336.5 79.0208 332.5 84.5625C329.708 88.4375 323.958 93.8125 315.25 100.688C304.875 108.812 296.542 112.875 290.25 112.875C285.5 112.875 281.917 110.875 279.5 106.875C278.042 104.458 276.854 100.917 275.938 96.25L270.375 100.25C255.083 110.833 243.667 116.125 236.125 116.125C229.833 116.125 224.792 113.833 221 109.25C217.667 105.125 216 100.188 216 94.4375C216 88.1042 218.167 83.1042 222.5 79.4375C231.333 72.0208 242.312 65.9167 255.438 61.125C260.771 59.1667 264.146 58.1875 265.562 58.1875C266.979 58.1875 268.271 58.4375 269.438 58.9375C270.646 59.3958 271.833 60 273 60.75C275.75 62.625 277.125 64.4375 277.125 66.1875C277.125 67.6042 276.25 68.75 274.5 69.625C273.958 69.9167 273.042 70.3125 271.75 70.8125C270.458 71.3125 268.875 72 267 72.875C261.958 75.25 257.042 78.125 252.25 81.5C248.833 84.4167 247.125 86.75 247.125 88.5C247.125 90.2083 248.333 91.0625 250.75 91.0625C252.75 91.0625 256.75 89.2917 262.75 85.75C262.75 85.75 264.521 84.6667 268.062 82.5C271.854 80.125 274.896 77.9583 277.188 76C277.188 76 278.146 72.875 280.062 66.625C283.604 55.4583 287.542 46.2292 291.875 38.9375C299.542 24.2292 307.25 16.875 315 16.875C317.833 16.875 320.083 17.3958 321.75 18.4375C324.75 20.3125 326.25 22.3958 326.25 24.6875C326.25 26.9375 325.833 29.3333 325 31.875C324.167 34.4167 323.062 36.9375 321.688 39.4375C320.354 41.9375 318.812 44.4167 317.062 46.875L306.375 61C304.583 63.2917 303 65.5208 301.625 67.6875C299.208 72.8958 298 77.3542 298 81.0625C298 86.3958 299.938 89.0625 303.812 89.0625C306.021 89.0625 310 86.75 315.75 82.125L323.125 75.875C326.583 72.7917 330 70.625 333.375 69.375C334.333 69 335.104 68.8125 335.688 68.8125ZM411.188 69.0625C413.188 69.0625 414.188 70.1875 414.188 72.4375C414.188 73.9375 413.667 75.8333 412.625 78.125C411.625 80.375 410.167 82.5 408.25 84.5C406.333 86.4583 404.125 88.5 401.625 90.625C399.167 92.75 396.271 94.9792 392.938 97.3125C389.646 99.6458 386 101.958 382 104.25C378 106.542 373.75 108.604 369.25 110.438C359.292 114.521 349.646 116.562 340.312 116.562C333.188 116.562 326.958 114.708 321.625 111C316.042 107.125 313.25 102.417 313.25 96.875C313.25 88.1667 317.938 79.8958 327.312 72.0625C335.396 65.3125 344.917 60.0833 355.875 56.375C362.542 54.125 368.188 53 372.812 53C376.562 53 379.729 53.9167 382.312 55.75C385.062 57.75 386.438 60.4375 386.438 63.8125C386.438 69.1042 382.25 74.9583 373.875 81.375C372.542 82.4167 371.333 83.2917 370.25 84L368 85.5C363.833 88.4167 357.5 91.6875 349 95.3125C351.625 96.6875 354.062 97.375 356.312 97.375C358.604 97.375 360.646 97.1042 362.438 96.5625C364.271 96.0208 366.333 95.25 368.625 94.25C370.917 93.25 373.354 92.0625 375.938 90.6875C378.562 89.2708 381.208 87.7292 383.875 86.0625C389.833 82.3542 395 78.5625 399.375 74.6875C401.667 72.5625 404.583 70.875 408.125 69.625C409.292 69.25 410.312 69.0625 411.188 69.0625ZM342.25 86.625L345.688 84.875C346.812 84.2917 347.812 83.75 348.688 83.25C357.104 78.4167 361.896 75.4375 363.062 74.3125C364.229 73.1875 364.812 72.4167 364.812 72C364.812 71.5417 364.688 71.0208 364.438 70.4375C364.188 69.8542 363.854 69.3333 363.438 68.875C362.438 67.7083 361.375 67.125 360.25 67.125C359.125 67.125 357.875 67.3333 356.5 67.75C355.167 68.1667 353.812 68.75 352.438 69.5C351.062 70.2083 349.729 71.0833 348.438 72.125C347.188 73.125 346.083 74.2083 345.125 75.375C342.917 78 341.812 80.2708 341.812 82.1875C341.812 84.1042 341.958 85.5833 342.25 86.625Z" fill="black"/>
<path d="M114.875 78.125L101.22 71.918L101.193 71.9753L101.168 72.0329L114.875 78.125ZM110.5 84.5L121.22 94.9919L121.275 94.9356L121.33 94.8786L110.5 84.5ZM103.875 90.625L94.1603 79.1959L94.1128 79.2362L94.0657 79.277L103.875 90.625ZM95.1875 97.3125L86.5856 85.024L86.5492 85.0495L86.5129 85.0752L95.1875 97.3125ZM71.5 110.438L65.8405 96.5461L65.8249 96.5525L65.8092 96.5589L71.5 110.438ZM23.875 111L32.4382 98.6845L32.4275 98.6771L23.875 111ZM29.5625 72.0625L19.9481 60.5489L19.9446 60.5518L29.5625 72.0625ZM58.125 56.375L53.3283 42.1626L53.3168 42.1665L58.125 56.375ZM84.5625 55.75L93.3851 43.619L93.3147 43.5678L93.2437 43.5174L84.5625 55.75ZM76.125 81.375L67.0023 69.468L66.9461 69.5111L66.8903 69.5546L76.125 81.375ZM72.5 84L64.2913 71.4455L64.2352 71.4821L64.1795 71.5192L72.5 84ZM70.25 85.5L61.9295 73.0192L61.7877 73.1138L61.6481 73.2115L70.25 85.5ZM51.25 95.3125L45.3657 81.5149L16.2705 93.9231L44.2899 108.6L51.25 95.3125ZM64.6875 96.5625L60.4373 82.1772L60.3919 82.1906L60.3467 82.2043L64.6875 96.5625ZM78.1875 90.6875L85.2352 103.929L85.2734 103.908L85.3115 103.888L78.1875 90.6875ZM86.125 86.0625L78.199 73.3275L78.187 73.335L78.175 73.3425L86.125 86.0625ZM101.625 74.6875L111.571 85.9163L111.699 85.8029L111.824 85.6865L101.625 74.6875ZM110.375 69.625L105.785 55.3446L105.583 55.4095L105.383 55.4801L110.375 69.625ZM44.5 86.625L30.0555 90.6694L34.9914 108.298L51.3052 99.9924L44.5 86.625ZM47.9375 84.875L54.7427 98.2424L54.7926 98.2171L54.8423 98.1913L47.9375 84.875ZM50.9375 83.25L58.3796 96.2736L58.3935 96.2657L58.4073 96.2578L50.9375 83.25ZM65.6875 68.875L54.2987 78.6369L54.4411 78.8031L54.5884 78.9651L65.6875 68.875ZM58.75 67.75L54.3999 53.3946L54.3378 53.4134L54.2759 53.4328L58.75 67.75ZM54.6875 69.5L61.5568 82.8346L61.7145 82.7534L61.8703 82.6684L54.6875 69.5ZM50.6875 72.125L60.0579 83.838L60.0809 83.8197L60.1038 83.8012L50.6875 72.125ZM47.375 75.375L58.8534 85.0314L58.91 84.9641L58.9659 84.8961L47.375 75.375ZM113.438 69.0625V84.0625C111.638 84.0625 107.679 83.4751 104.476 79.8717C101.573 76.605 101.438 73.218 101.438 72.4375H116.438H131.438C131.438 69.407 130.802 64.3325 126.899 59.9408C122.696 55.2124 117.237 54.0625 113.438 54.0625V69.0625ZM116.438 72.4375H101.438C101.438 71.9512 101.479 71.585 101.513 71.3627C101.547 71.1393 101.581 71.0177 101.583 71.0107C101.585 71.0022 101.565 71.0751 101.505 71.2366C101.445 71.3969 101.354 71.6226 101.22 71.918L114.875 78.125L128.53 84.332C129.936 81.2405 131.438 77.0578 131.438 72.4375H116.438ZM114.875 78.125L101.168 72.0329C100.954 72.5134 100.536 73.2181 99.6702 74.1214L110.5 84.5L121.33 94.8786C124.297 91.7819 126.796 88.2366 128.582 84.2171L114.875 78.125ZM110.5 84.5L99.78 74.0081C98.239 75.5825 96.3767 77.312 94.1603 79.1959L103.875 90.625L113.59 102.054C116.373 99.688 118.928 97.3342 121.22 94.9919L110.5 84.5ZM103.875 90.625L94.0657 79.277C92.0753 80.9974 89.5998 82.9141 86.5856 85.024L95.1875 97.3125L103.789 109.601C107.442 107.044 110.758 104.503 113.684 101.973L103.875 90.625ZM95.1875 97.3125L86.5129 85.0752C83.6652 87.0938 80.4327 89.1496 76.7933 91.2347L84.25 104.25L91.7067 117.265C96.0673 114.767 100.126 112.198 103.862 109.55L95.1875 97.3125ZM84.25 104.25L76.7933 91.2347C73.4024 93.1774 69.7557 94.951 65.8405 96.5461L71.5 110.438L77.1595 124.329C82.2443 122.257 87.0976 119.906 91.7067 117.265L84.25 104.25ZM71.5 110.438L65.8092 96.5589C57.383 100.014 49.6684 101.562 42.5625 101.562V116.562V131.562C54.1232 131.562 65.7003 129.028 77.1908 124.316L71.5 110.438ZM42.5625 116.562V101.562C38.1885 101.562 35.0145 100.476 32.4381 98.6845L23.875 111L15.3119 123.316C23.4021 128.941 32.6865 131.562 42.5625 131.562V116.562ZM23.875 111L32.4275 98.6771C30.9884 97.6783 30.5624 97.0239 30.4963 96.9123C30.465 96.8596 30.4801 96.874 30.4963 96.9332C30.5121 96.9913 30.5 96.9867 30.5 96.875H15.5H0.5C0.5 108.471 6.73578 117.363 15.3225 123.323L23.875 111ZM15.5 96.875H30.5C30.5 94.1927 31.7812 89.7556 39.1804 83.5732L29.5625 72.0625L19.9446 60.5518C8.59382 70.036 0.5 82.1407 0.5 96.875H15.5ZM29.5625 72.0625L39.1769 83.5761C45.7045 78.1252 53.5565 73.7566 62.9332 70.5835L58.125 56.375L53.3168 42.1665C40.7768 46.4101 29.5871 52.4998 19.9481 60.5489L29.5625 72.0625ZM58.125 56.375L62.9217 70.5874C68.7619 68.6163 72.6852 68 75.0625 68V53V38C68.1898 38 60.8215 39.6337 53.3283 42.1626L58.125 56.375ZM75.0625 53V68C75.7165 68 76.0227 68.0796 76.0791 68.096C76.1082 68.1044 76.0917 68.1018 76.0438 68.0789C75.995 68.0556 75.9377 68.0226 75.8813 67.9826L84.5625 55.75L93.2437 43.5174C87.6838 39.5716 81.3365 38 75.0625 38V53ZM84.5625 55.75L75.7399 67.881C75.4525 67.672 74.8173 67.1039 74.3025 66.0978C73.7857 65.0877 73.6875 64.2168 73.6875 63.8125H88.6875H103.688C103.688 55.5957 99.9816 48.4164 93.3851 43.619L84.5625 55.75ZM88.6875 63.8125H73.6875C73.6875 62.3797 74.2628 62.1644 73.3467 63.4451C72.416 64.7463 70.5071 66.7827 67.0023 69.468L76.125 81.375L85.2477 93.282C93.9928 86.5818 103.688 76.7832 103.688 63.8125H88.6875ZM76.125 81.375L66.8903 69.5546C65.7942 70.411 64.9348 71.0247 64.2913 71.4455L72.5 84L80.7087 96.5545C82.2318 95.5587 83.7891 94.4224 85.3597 93.1954L76.125 81.375ZM72.5 84L64.1795 71.5192L61.9295 73.0192L70.25 85.5L78.5705 97.9808L80.8205 96.4808L72.5 84ZM70.25 85.5L61.6481 73.2115C58.7579 75.2346 53.5495 78.0247 45.3657 81.5149L51.25 95.3125L57.1343 109.11C65.9505 105.35 73.4088 101.599 78.8519 97.7885L70.25 85.5ZM51.25 95.3125L44.2899 108.6C48.4066 110.756 53.2426 112.375 58.5625 112.375V97.375V82.375C58.9744 82.375 59.176 82.4388 59.1188 82.4226C59.0518 82.4037 58.7534 82.3096 58.2101 82.025L51.25 95.3125ZM58.5625 97.375V112.375C62.0081 112.375 65.555 111.971 69.0283 110.921L64.6875 96.5625L60.3467 82.2043C60.2367 82.2376 59.7002 82.375 58.5625 82.375V97.375ZM64.6875 96.5625L68.9377 110.948C71.5154 110.186 74.1758 109.176 76.8742 107.998L70.875 94.25L64.8758 80.5019C62.9909 81.3244 61.5263 81.8555 60.4373 82.1772L64.6875 96.5625ZM70.875 94.25L76.8742 107.998C79.5756 106.819 82.3651 105.456 85.2352 103.929L78.1875 90.6875L71.1398 77.4463C68.8432 78.6686 66.7578 79.6807 64.8758 80.5019L70.875 94.25ZM78.1875 90.6875L85.3115 103.888C88.2315 102.312 91.1526 100.609 94.075 98.7825L86.125 86.0625L78.175 73.3425C75.764 74.8494 73.3935 76.2297 71.0635 77.4872L78.1875 90.6875ZM86.125 86.0625L94.051 98.7975C100.587 94.7299 106.455 90.4468 111.571 85.9163L101.625 74.6875L91.6795 63.4587C88.0445 66.6782 83.5802 69.9784 78.199 73.3275L86.125 86.0625ZM101.625 74.6875L111.824 85.6865C112.342 85.2061 113.376 84.4728 115.367 83.7699L110.375 69.625L105.383 55.4801C100.291 57.2772 95.4912 59.9189 91.4259 63.6885L101.625 74.6875ZM110.375 69.625L114.965 83.9054C115.039 83.8816 114.953 83.9146 114.725 83.9563C114.502 83.9974 114.058 84.0625 113.438 84.0625V69.0625V54.0625C110.519 54.0625 107.889 54.6683 105.785 55.3446L110.375 69.625ZM44.5 86.625L51.3052 99.9924L54.7427 98.2424L47.9375 84.875L41.1323 71.5076L37.6948 73.2576L44.5 86.625ZM47.9375 84.875L54.8423 98.1913C56.1047 97.5367 57.2894 96.8966 58.3796 96.2736L50.9375 83.25L43.4954 70.2264C42.8356 70.6034 42.0203 71.0466 41.0327 71.5587L47.9375 84.875ZM50.9375 83.25L58.4073 96.2578C62.6763 93.8062 66.1512 91.7536 68.7638 90.1292C70.7802 88.8756 73.7683 86.9966 75.7245 85.1102L65.3125 74.3125L54.9005 63.5148C55.5658 62.8733 55.9341 62.6789 55.2489 63.1508C54.7726 63.4789 54.019 63.971 52.9237 64.652C50.7446 66.0068 47.6153 67.8604 43.4677 70.2422L50.9375 83.25ZM65.3125 74.3125L75.7245 85.1102C76.548 84.3161 77.6156 83.2247 78.5861 81.9423C79.071 81.3015 79.7774 80.2933 80.4164 78.9925C80.9692 77.8672 82.0625 75.3563 82.0625 72H67.0625H52.0625C52.0625 68.852 53.0829 66.5937 53.4898 65.7653C53.983 64.7614 54.4707 64.0943 54.6639 63.839C55.051 63.3274 55.2437 63.1839 54.9005 63.5148L65.3125 74.3125ZM67.0625 72H82.0625C82.0625 68.8891 81.2373 66.3081 80.4747 64.5287L66.6875 70.4375L52.9003 76.3463C52.6377 75.7336 52.0625 74.1942 52.0625 72H67.0625ZM66.6875 70.4375L80.4747 64.5287C79.5838 62.4501 78.3533 60.5082 76.7866 58.7849L65.6875 68.875L54.5884 78.9651C53.8551 78.1584 53.2912 77.2583 52.9003 76.3463L66.6875 70.4375ZM65.6875 68.875L77.0763 59.1131C74.3215 55.8991 69.4451 52.125 62.5 52.125V67.125V82.125C57.8049 82.125 55.0535 79.5175 54.2987 78.6369L65.6875 68.875ZM62.5 67.125V52.125C59.5588 52.125 56.8153 52.6627 54.3999 53.3946L58.75 67.75L63.1001 82.1054C63.2499 82.06 63.2742 82.0622 63.1847 82.0772C63.0951 82.0921 62.8595 82.125 62.5 82.125V67.125ZM58.75 67.75L54.2759 53.4328C51.8993 54.1755 49.6406 55.1665 47.5047 56.3316L54.6875 69.5L61.8703 82.6684C62.4844 82.3335 62.9341 82.1578 63.2241 82.0672L58.75 67.75ZM54.6875 69.5L47.8182 56.1654C45.4774 57.3712 43.2966 58.8155 41.2712 60.4488L50.6875 72.125L60.1038 83.8012C60.6618 83.3512 61.1476 83.0454 61.5568 82.8346L54.6875 69.5ZM50.6875 72.125L41.3171 60.412C39.3015 62.0245 37.4429 63.8346 35.7841 65.8539L47.375 75.375L58.9659 84.8961C59.2238 84.5821 59.5735 84.2255 60.0579 83.838L50.6875 72.125ZM47.375 75.375L35.8966 65.7186C33.0199 69.1381 29.0625 74.8601 29.0625 82.1875H44.0625H59.0625C59.0625 84.1043 58.5199 85.3194 58.3805 85.6062C58.2387 85.8978 58.2815 85.7112 58.8534 85.0314L47.375 75.375ZM44.0625 82.1875H29.0625C29.0625 84.5923 29.2162 87.6716 30.0555 90.6694L44.5 86.625L58.9445 82.5806C59.0299 82.8856 59.0709 83.1004 59.0877 83.1968C59.105 83.2964 59.1055 83.3233 59.0995 83.2626C59.0937 83.204 59.084 83.0856 59.076 82.8994C59.0681 82.7143 59.0625 82.4786 59.0625 82.1875H44.0625ZM174.375 83.875L163.04 74.051L163.021 74.0727L163.002 74.0944L174.375 83.875ZM155.375 102.125L164.745 113.838L164.786 113.806L164.826 113.773L155.375 102.125ZM107.062 107.625L94.9638 116.492L94.972 116.503L94.9802 116.514L107.062 107.625ZM120.062 38.5L131.743 47.9104L131.75 47.9019L131.757 47.8933L120.062 38.5ZM143.625 17.375L150.363 30.7762L150.397 30.7594L150.43 30.7424L143.625 17.375ZM152.25 16.25L146.481 30.0962L146.822 30.2382L147.169 30.3633L152.25 16.25ZM155.125 17.875L164.751 6.37095L164.658 6.29288L164.563 6.21633L155.125 17.875ZM156.188 32.6875L170.09 38.319L170.103 38.2887L170.115 38.2584L156.188 32.6875ZM150.375 43.25L137.958 34.8342L137.951 34.8444L137.945 34.8546L150.375 43.25ZM128.562 66.125L119.225 54.386L116.741 56.3617L115.27 59.174L128.562 66.125ZM127.75 90.625L115.585 99.4001L115.631 99.4652L115.679 99.5297L127.75 90.625ZM151.625 84.875L160.485 96.9784L160.631 96.8719L160.774 96.7619L151.625 84.875ZM162.75 76.3125L171.899 88.1994L172.004 88.1186L172.107 88.036L162.75 76.3125ZM175.25 70.875V85.875C174.887 85.875 171.825 85.858 168.683 83.256C164.999 80.2053 164.25 76.2184 164.25 74.1875H179.25H194.25C194.25 69.9483 192.834 64.3051 187.817 60.1503C183.342 56.4441 178.279 55.875 175.25 55.875V70.875ZM179.25 74.1875H164.25C164.25 73.3592 164.375 72.7324 164.477 72.3568C164.578 71.9889 164.666 71.8308 164.632 71.8979C164.599 71.9633 164.479 72.1864 164.211 72.5705C163.944 72.9519 163.565 73.4451 163.04 74.051L174.375 83.875L185.71 93.699C189.577 89.2369 194.25 82.4899 194.25 74.1875H179.25ZM174.375 83.875L163.002 74.0944C158.285 79.58 152.614 85.0482 145.924 90.4772L155.375 102.125L164.826 113.773C172.719 107.368 179.715 100.67 185.748 93.6556L174.375 83.875ZM155.375 102.125L146.005 90.412C135.239 99.0244 127.928 101.375 123.562 101.375V116.375V131.375C137.863 131.375 151.761 124.226 164.745 113.838L155.375 102.125ZM123.562 116.375V101.375C122.049 101.375 120.872 101.083 119.145 98.7358L107.062 107.625L94.9802 116.514C101.837 125.834 111.659 131.375 123.562 131.375V116.375ZM107.062 107.625L119.161 98.7581C117.16 96.0269 115.375 91.3124 115.375 83.125H100.375H85.375C85.375 95.4376 88.0488 107.056 94.9638 116.492L107.062 107.625ZM100.375 83.125H115.375C115.375 74.5338 119.641 62.9333 131.743 47.9104L120.062 38.5L108.382 29.0896C94.2344 46.65 85.375 64.7995 85.375 83.125H100.375ZM120.062 38.5L131.757 47.8933C139.473 38.2869 145.73 33.106 150.363 30.7762L143.625 17.375L136.887 3.97377C126.77 9.06065 117.318 17.9631 108.368 29.1067L120.062 38.5ZM143.625 17.375L150.43 30.7424C151.149 30.3765 151.447 30.2769 151.4 30.2927C151.362 30.3053 151.142 30.3774 150.769 30.451C150.407 30.5224 149.751 30.625 148.875 30.625V15.625V0.625C143.848 0.625 139.355 2.71682 136.82 4.00755L143.625 17.375ZM148.875 15.625V30.625C148.446 30.625 147.568 30.5492 146.481 30.0962L152.25 16.25L158.019 2.40385C154.932 1.11744 151.804 0.625 148.875 0.625V15.625ZM152.25 16.25L147.169 30.3633C146.605 30.16 146.094 29.8635 145.687 29.5337L155.125 17.875L164.563 6.21633C162.406 4.46983 159.979 3.08998 157.331 2.13669L152.25 16.25ZM155.125 17.875L145.499 29.3791C145.173 29.1063 144.524 28.4593 143.978 27.357C143.413 26.2156 143.188 25.0434 143.188 24.0625H158.188H173.188C173.188 16.7185 169.807 10.6018 164.751 6.37095L155.125 17.875ZM158.188 24.0625H143.188C143.188 23.9123 143.205 24.0818 143.075 24.6429C142.947 25.1977 142.702 26.0131 142.26 27.1166L156.188 32.6875L170.115 38.2584C171.845 33.9336 173.188 29.0784 173.188 24.0625H158.188ZM156.188 32.6875L142.285 27.056C141.438 29.1456 140.061 31.7313 137.958 34.8342L150.375 43.25L162.792 51.6658C165.772 47.2687 168.27 42.8128 170.09 38.319L156.188 32.6875ZM150.375 43.25L137.945 34.8546C133.588 41.3052 127.449 47.844 119.225 54.386L128.562 66.125L137.9 77.864C148.009 69.8227 156.412 61.1115 162.805 51.6454L150.375 43.25ZM128.562 66.125L115.27 59.174C111.533 66.3216 110 74.2837 110 82.5H125H140C140 77.9663 140.842 75.0118 141.855 73.076L128.562 66.125ZM125 82.5H110C110 88.8113 112.083 94.5459 115.585 99.4001L127.75 90.625L139.915 81.8499C139.79 81.6763 139.831 81.6873 139.896 81.8786C139.926 81.9686 139.954 82.0764 139.974 82.1948C139.993 82.3132 140 82.4179 140 82.5H125ZM127.75 90.625L115.679 99.5297C119.163 104.253 125.19 109.438 133.938 109.438V94.4375V79.4375C135.805 79.4375 137.426 80.0079 138.572 80.7139C139.59 81.3412 139.947 81.8919 139.821 81.7203L127.75 90.625ZM133.938 94.4375V109.438C139.537 109.438 144.669 106.938 147.806 105.242C151.602 103.19 155.869 100.358 160.485 96.9784L151.625 84.875L142.765 72.7716C138.672 75.7674 135.638 77.7166 133.538 78.8518C132.494 79.4165 131.927 79.6446 131.759 79.7041C131.468 79.8076 132.331 79.4375 133.938 79.4375V94.4375ZM151.625 84.875L160.774 96.7619L171.899 88.1994L162.75 76.3125L153.601 64.4256L142.476 72.9881L151.625 84.875ZM162.75 76.3125L172.107 88.036C173.619 86.8296 174.672 86.2472 175.265 85.9893C175.828 85.7444 175.779 85.875 175.25 85.875V70.875V55.875C166.665 55.875 159.248 59.9155 153.393 64.589L162.75 76.3125ZM219.562 42.75L229.126 54.3059L229.242 54.2097L229.357 54.1111L219.562 42.75ZM215.625 45.25L221.68 58.9738L221.847 58.9L222.012 58.8223L215.625 45.25ZM201.562 42.875L211.357 31.5139L211.341 31.5L211.324 31.4862L201.562 42.875ZM211.125 22.25L215.325 36.65L215.389 36.6313L215.453 36.612L211.125 22.25ZM223 21.5625L216.528 35.0945L216.875 35.2606L217.231 35.4087L223 21.5625ZM225.438 23.25L236.685 13.3257L225.438 23.25ZM226.75 31.625L212.424 27.179L212.353 27.4065L212.29 27.6361L226.75 31.625ZM203.812 111.562L210.661 124.908L210.73 124.872L210.799 124.836L203.812 111.562ZM194.562 115.438L189.998 101.149L189.908 101.177L189.819 101.207L194.562 115.438ZM176.688 114.875L170.425 128.505L170.535 128.556L170.646 128.605L176.688 114.875ZM168.438 109.25L157.999 120.022L158.009 120.032L158.019 120.041L168.438 109.25ZM165.625 74L152.693 66.399L152.669 66.4399L152.646 66.4809L165.625 74ZM201.438 59.8125L216.331 58.0253L216.329 58.011L216.327 57.9967L201.438 59.8125ZM200.625 68.1875L186.567 62.9565L186.532 63.0493L186.499 63.1425L200.625 68.1875ZM198.125 73.5L185.157 65.9607L185.129 66.0092L185.101 66.0579L198.125 73.5ZM194.75 78.6875L182.645 69.8299L182.625 69.8564L182.606 69.883L194.75 78.6875ZM191.25 83.25L202.818 92.7985L202.839 92.7736L202.859 92.7486L191.25 83.25ZM186.062 88.9375L176.008 77.806L171.062 82.273V88.9375H186.062ZM189.25 93.3125L197.92 81.0721L197.91 81.065L197.9 81.058L189.25 93.3125ZM199.25 94.4375L194.322 80.27L194.273 80.287L194.225 80.3043L199.25 94.4375ZM205.125 91.75L197.886 78.6124L197.828 78.6441L197.771 78.6764L205.125 91.75ZM211.312 87.875L202.825 75.5073L202.768 75.5466L202.711 75.5865L211.312 87.875ZM217.562 83.375L226.602 95.3456L226.701 95.2708L226.798 95.1944L217.562 83.375ZM229 74.4375L220.197 62.292L219.978 62.4512L219.764 62.6181L229 74.4375ZM242.625 70.75L230.337 79.3519L230.584 79.7057L230.852 80.0447L242.625 70.75ZM241.938 78.0625L254.925 85.5667L254.961 85.5052L254.996 85.4434L241.938 78.0625ZM237.438 84.3125L225.931 74.6892L225.879 74.7513L225.828 74.8139L237.438 84.3125ZM230.812 91.5L220.294 80.8061L230.812 91.5ZM213.312 105.812L221.783 118.192L221.8 118.18L221.817 118.168L213.312 105.812ZM219.562 42.75L209.999 31.1941C209.759 31.3927 209.513 31.5481 209.238 31.6777L215.625 45.25L222.012 58.8223C224.57 57.6185 226.949 56.1073 229.126 54.3059L219.562 42.75ZM215.625 45.25L209.57 31.5262C210.295 31.2066 210.811 31.1875 210.875 31.1875V46.1875V61.1875C214.439 61.1875 218.122 60.5434 221.68 58.9738L215.625 45.25ZM210.875 46.1875V31.1875C210.855 31.1875 210.844 31.1867 210.842 31.1865C210.841 31.1864 210.844 31.1866 210.852 31.1879C210.859 31.1892 210.867 31.1909 210.874 31.1927C210.881 31.1946 210.883 31.1956 210.88 31.1946L205.812 45.3125L200.745 59.4304C204.018 60.6055 207.421 61.1875 210.875 61.1875V46.1875ZM205.812 45.3125L210.88 31.1946C210.85 31.1837 210.896 31.1976 210.994 31.2538C211.094 31.3111 211.221 31.3969 211.357 31.5139L201.562 42.875L191.768 54.2361C194.48 56.5741 197.531 58.277 200.745 59.4304L205.812 45.3125ZM201.562 42.875L211.324 31.4862C211.508 31.6439 211.924 32.0779 212.255 32.8019C212.583 33.5209 212.625 34.0832 212.625 34.25H197.625H182.625C182.625 42.0666 185.804 49.1238 191.801 54.2638L201.562 42.875ZM197.625 34.25H212.625C212.625 35.0751 212.435 36.0445 211.992 36.9675C211.568 37.85 211.095 38.3146 210.965 38.4299C210.864 38.5203 211.067 38.3152 211.827 37.9425C212.578 37.5737 213.71 37.121 215.325 36.65L211.125 22.25L206.925 7.85C201.36 9.47324 195.615 11.936 191.035 16.0076C186.011 20.4731 182.625 26.736 182.625 34.25H197.625ZM211.125 22.25L215.453 36.612C216.566 36.2766 217.399 36.0804 217.986 35.9728C218.592 35.8618 218.774 35.875 218.625 35.875V20.875V5.875C214.578 5.875 210.485 6.77639 206.797 7.88803L211.125 22.25ZM218.625 20.875V35.875C219.06 35.875 219.102 35.9032 218.859 35.865C218.725 35.844 218.455 35.795 218.083 35.6893C217.715 35.5845 217.174 35.4034 216.528 35.0945L223 21.5625L229.472 8.03049C225.435 6.09975 221.242 5.875 218.625 5.875V20.875ZM223 21.5625L217.231 35.4087C216.44 35.079 215.277 34.406 214.19 33.1743L225.438 23.25L236.685 13.3257C234.348 10.6773 231.56 8.87931 228.769 7.71635L223 21.5625ZM225.438 23.25L214.19 33.1743C213.671 32.5861 212.312 30.6543 212.312 27.625H227.312H242.312C242.312 21.5957 239.704 16.7473 236.685 13.3257L225.438 23.25ZM227.312 27.625H212.312C212.312 27.8011 212.29 27.6107 212.424 27.179L226.75 31.625L241.076 36.071C241.96 33.2226 242.312 30.3656 242.312 27.625H227.312ZM226.75 31.625L212.29 27.6361C212.272 27.7008 212.185 27.9831 211.921 28.4954L225.25 35.375L238.579 42.2546C239.648 40.1836 240.561 37.9659 241.21 35.6139L226.75 31.625ZM225.25 35.375L211.921 28.4954C211.662 28.9962 211.292 29.6032 210.766 30.3123L222.812 39.25L234.859 48.1877C236.25 46.3135 237.504 44.3371 238.579 42.2546L225.25 35.375ZM222.812 39.25L210.766 30.3123C210.461 30.7229 210.132 31.0754 209.768 31.3889L219.562 42.75L229.357 54.1111C231.41 52.3413 233.247 50.3605 234.859 48.1877L222.812 39.25ZM203.812 111.562L196.964 98.2171C194.439 99.5131 192.119 100.471 189.998 101.149L194.562 115.438L199.127 129.726C203.006 128.487 206.853 126.862 210.661 124.908L203.812 111.562ZM194.562 115.438L189.819 101.207C188.22 101.74 186.862 101.938 185.688 101.938V116.938V131.938C190.347 131.938 194.905 131.135 199.306 129.668L194.562 115.438ZM185.688 116.938V101.938C185.245 101.938 184.301 101.837 182.729 101.145L176.688 114.875L170.646 128.605C175.324 130.663 180.38 131.938 185.688 131.938V116.938ZM176.688 114.875L182.95 101.245C181.386 100.526 180.045 99.6065 178.856 98.459L168.438 109.25L158.019 120.041C161.663 123.56 165.822 126.39 170.425 128.505L176.688 114.875ZM168.438 109.25L178.876 98.4777C175.867 95.5622 175.375 93.4834 175.375 91.875H160.375H145.375C145.375 103.017 150.258 112.521 157.999 120.022L168.438 109.25ZM160.375 91.875H175.375C175.375 89.099 176.177 85.7084 178.604 81.5191L165.625 74L152.646 66.4809C148.073 74.375 145.375 82.901 145.375 91.875H160.375ZM165.625 74L178.557 81.601C180.778 77.8209 183.533 74.7496 186.859 72.2621L177.875 60.25L168.891 48.2379C162.3 53.1671 156.888 59.2624 152.693 66.399L165.625 74ZM177.875 60.25L186.859 72.2621C190.362 69.6419 191.856 69.6875 191.688 69.6875V54.6875V39.6875C183.019 39.6875 175.304 43.4415 168.891 48.2379L177.875 60.25ZM191.688 54.6875V69.6875C193.707 69.6875 193.209 70.0351 191.708 69.2462C190.792 68.7645 189.506 67.8517 188.394 66.2983C187.259 64.7114 186.719 63.0311 186.548 61.6283L201.438 59.8125L216.327 57.9967C215.477 51.028 211.306 45.6556 205.667 42.6913C200.916 40.1941 195.751 39.6875 191.688 39.6875V54.6875ZM201.438 59.8125L186.544 61.5997C186.58 61.8992 186.625 62.488 186.625 63.4375H201.625H216.625C216.625 61.637 216.545 59.8092 216.331 58.0253L201.438 59.8125ZM201.625 63.4375H186.625C186.625 62.9235 186.686 62.6175 186.697 62.5661C186.708 62.5132 186.686 62.6366 186.567 62.9565L200.625 68.1875L214.683 73.4185C215.748 70.5584 216.625 67.1467 216.625 63.4375H201.625ZM200.625 68.1875L186.499 63.1425C186.216 63.935 185.789 64.8737 185.157 65.9607L198.125 73.5L211.093 81.0393C212.544 78.5429 213.784 75.94 214.751 73.2325L200.625 68.1875ZM198.125 73.5L185.101 66.0579C184.394 67.2955 183.579 68.5532 182.645 69.8299L194.75 78.6875L206.855 87.5451C208.421 85.4051 209.856 83.2045 211.149 80.9421L198.125 73.5ZM194.75 78.6875L182.606 69.883C181.543 71.3492 180.554 72.6346 179.641 73.7514L191.25 83.25L202.859 92.7486C204.196 91.1154 205.541 89.3591 206.894 87.492L194.75 78.6875ZM191.25 83.25L179.682 73.7015C177.63 76.1878 176.462 77.396 176.008 77.806L186.062 88.9375L196.117 100.069C198.246 98.1456 200.537 95.5622 202.818 92.7985L191.25 83.25ZM186.062 88.9375H171.062C171.062 98.1309 177.679 103.505 180.6 105.567L189.25 93.3125L197.9 81.058C197.637 80.872 198.227 81.224 198.983 82.2609C199.807 83.3916 201.062 85.6971 201.062 88.9375H186.062ZM189.25 93.3125L180.58 105.553C183.373 107.532 188.223 110.438 194.312 110.438V95.4375V80.4375C196.16 80.4375 197.403 80.8996 197.821 81.0753C198.262 81.2602 198.307 81.346 197.92 81.0721L189.25 93.3125ZM194.312 95.4375V110.438C197.981 110.438 201.388 109.597 204.275 108.571L199.25 94.4375L194.225 80.3043C194.036 80.3716 193.891 80.4166 193.788 80.4457C193.686 80.4749 193.635 80.4854 193.632 80.486C193.629 80.4866 193.685 80.4751 193.795 80.4631C193.905 80.4511 194.08 80.4375 194.312 80.4375V95.4375ZM199.25 94.4375L204.178 108.605C207.034 107.611 209.803 106.329 212.479 104.824L205.125 91.75L197.771 78.6764C196.447 79.4211 195.299 79.9303 194.322 80.27L199.25 94.4375ZM205.125 91.75L212.364 104.888C214.915 103.482 217.431 101.902 219.914 100.163L211.312 87.875L202.711 75.5865C201.027 76.765 199.418 77.768 197.886 78.6124L205.125 91.75ZM211.312 87.875L219.8 100.243C222.111 98.6571 224.378 97.0248 226.602 95.3456L217.562 83.375L208.523 71.4044C206.664 72.8085 204.764 74.1762 202.825 75.5073L211.312 87.875ZM217.562 83.375L226.798 95.1944L238.236 86.2569L229 74.4375L219.764 62.6181L208.327 71.5556L217.562 83.375ZM229 74.4375L237.803 86.583C239.532 85.3299 240.675 84.7044 241.285 84.432C241.57 84.3048 241.617 84.3099 241.448 84.3525C241.279 84.3951 240.797 84.5 240.062 84.5V69.5V54.5C232.204 54.5 225.198 58.6674 220.197 62.292L229 74.4375ZM240.062 69.5V84.5C238.761 84.5 236.935 84.2523 234.971 83.294C232.95 82.3085 231.398 80.8688 230.337 79.3519L242.625 70.75L254.913 62.1481C251.193 56.8332 245.477 54.5 240.062 54.5V69.5ZM242.625 70.75L230.852 80.0447C230.111 79.1058 229.502 78.0038 229.098 76.7903C228.698 75.5896 228.562 74.4786 228.562 73.5625H243.562H258.562C258.562 69.3734 257.273 65.0966 254.398 61.4553L242.625 70.75ZM243.562 73.5625H228.562C228.562 72.6039 228.68 71.8536 228.78 71.3749C228.882 70.8896 228.993 70.5578 229.048 70.4053C229.147 70.1316 229.151 70.2008 228.879 70.6816L241.938 78.0625L254.996 85.4434C256.29 83.1536 258.562 78.7636 258.562 73.5625H243.562ZM241.938 78.0625L228.95 70.5583C228.426 71.4649 227.486 72.8305 225.931 74.6892L237.438 84.3125L248.944 93.9358C251.222 91.2112 253.283 88.4101 254.925 85.5667L241.938 78.0625ZM237.438 84.3125L225.828 74.8139C224.355 76.6139 222.525 78.6111 220.294 80.8061L230.812 91.5L241.331 102.194C244.183 99.3889 246.77 96.5944 249.047 93.8111L237.438 84.3125ZM230.812 91.5L220.294 80.8061C218.103 82.9609 215.699 85.1128 213.073 87.2584L222.562 98.875L232.052 110.492C235.342 107.804 238.438 105.039 241.331 102.194L230.812 91.5ZM222.562 98.875L213.073 87.2584C210.439 89.4102 207.684 91.4765 204.808 93.4566L213.312 105.812L221.817 118.168C225.357 115.732 228.77 113.173 232.052 110.492L222.562 98.875ZM213.312 105.812L204.842 93.4329C202.119 95.2964 199.446 96.9098 196.826 98.2887L203.812 111.562L210.799 124.836C214.512 122.882 218.173 120.662 221.783 118.192L213.312 105.812ZM332.5 84.5625L320.337 75.7835L320.329 75.7945L332.5 84.5625ZM315.25 100.688L324.498 112.497L324.522 112.479L324.545 112.461L315.25 100.688ZM279.5 106.875L266.657 114.625L266.661 114.632L279.5 106.875ZM275.938 96.25L290.656 93.3588L286.152 70.429L267.18 84.0718L275.938 96.25ZM270.375 100.25L278.911 112.584L279.023 112.507L279.132 112.428L270.375 100.25ZM221 109.25L209.333 118.678L209.387 118.745L209.442 118.811L221 109.25ZM222.5 79.4375L212.855 67.9498L212.833 67.9682L212.811 67.9867L222.5 79.4375ZM255.438 61.125L260.582 75.2154L260.595 75.2106L260.608 75.2058L255.438 61.125ZM269.438 58.9375L263.529 72.7247L263.821 72.8498L264.118 72.9625L269.438 58.9375ZM273 60.75L281.45 48.3566L281.282 48.2422L281.111 48.1323L273 60.75ZM274.5 69.625L267.792 56.2086L267.589 56.3102L267.389 56.4179L274.5 69.625ZM267 72.875L260.657 59.2823L260.632 59.2937L260.608 59.3053L267 72.875ZM252.25 81.5L243.612 69.2366L243.042 69.6385L242.511 70.0915L252.25 81.5ZM262.75 85.75L270.375 98.6675L270.477 98.6073L270.578 98.5455L262.75 85.75ZM268.062 82.5L275.89 95.2955L275.958 95.2542L276.025 95.2121L268.062 82.5ZM277.188 76L286.932 87.4035L290.249 84.5691L291.528 80.3978L277.188 76ZM280.062 66.625L265.764 62.0902L265.743 62.1586L265.722 62.2272L280.062 66.625ZM291.875 38.9375L304.77 46.6007L304.983 46.2414L305.176 45.8708L291.875 38.9375ZM321.75 18.4375L313.8 31.1575L321.75 18.4375ZM321.688 39.4375L308.544 32.2087L308.498 32.2934L308.452 32.3787L321.688 39.4375ZM317.062 46.875L329.024 55.9257L329.156 55.7517L329.282 55.574L317.062 46.875ZM306.375 61L318.192 70.2388L318.265 70.1454L318.337 70.0507L306.375 61ZM301.625 67.6875L288.96 59.6501L288.433 60.4812L288.018 61.374L301.625 67.6875ZM315.75 82.125L325.151 93.8132L325.301 93.6927L325.448 93.5684L315.75 82.125ZM323.125 75.875L332.823 87.3184L332.967 87.1966L333.107 87.0712L323.125 75.875ZM333.375 69.375L338.585 83.4412L338.713 83.3936L338.841 83.3436L333.375 69.375ZM335.688 68.8125V83.8125C334.228 83.8125 330.398 83.418 327.074 80.0207C323.811 76.6844 323.5 72.9596 323.5 71.6875H338.5H353.5C353.5 68.4988 352.721 63.3365 348.519 59.0418C344.258 54.6862 339.022 53.8125 335.688 53.8125V68.8125ZM338.5 71.6875H323.5C323.5 70.8316 323.636 70.3208 323.654 70.2564C323.674 70.1827 323.628 70.3699 323.404 70.8514C322.936 71.8546 322.004 73.4742 320.337 75.7835L332.5 84.5625L344.663 93.3415C346.996 90.1092 349.064 86.812 350.596 83.5236C352.059 80.3855 353.5 76.2772 353.5 71.6875H338.5ZM332.5 84.5625L320.329 75.7945C318.879 77.8085 314.628 82.0675 305.955 88.9143L315.25 100.688L324.545 112.461C333.289 105.557 340.538 99.0665 344.671 93.3305L332.5 84.5625ZM315.25 100.688L306.002 88.8779C301.328 92.5382 297.56 94.9241 294.646 96.345C293.211 97.0445 292.117 97.4439 291.337 97.6605C290.557 97.8772 290.221 97.875 290.25 97.875V112.875V127.875C302.005 127.875 313.857 120.831 324.498 112.497L315.25 100.688ZM290.25 112.875V97.875C290.027 97.875 290.537 97.8455 291.31 98.277C291.664 98.4741 291.943 98.6982 292.138 98.8934C292.326 99.0814 292.379 99.1854 292.339 99.1183L279.5 106.875L266.661 114.632C271.848 123.217 280.353 127.875 290.25 127.875V112.875ZM279.5 106.875L292.343 99.125C292.346 99.1308 292.281 99.0225 292.166 98.7639C292.052 98.5073 291.905 98.1387 291.737 97.6377C291.396 96.6205 291.022 95.2188 290.656 93.3588L275.938 96.25L261.219 99.1412C262.274 104.515 263.884 110.029 266.657 114.625L279.5 106.875ZM275.938 96.25L267.18 84.0718L261.618 88.0718L270.375 100.25L279.132 112.428L284.695 108.428L275.938 96.25ZM270.375 100.25L261.839 87.9159C254.598 92.9271 248.694 96.3881 244.036 98.5471C239.151 100.811 236.729 101.125 236.125 101.125V116.125V131.125C243.063 131.125 250.12 128.793 256.652 125.765C263.41 122.633 270.86 118.156 278.911 112.584L270.375 100.25ZM236.125 116.125V101.125C234.008 101.125 233.316 100.606 232.558 99.6886L221 109.25L209.442 118.811C216.267 127.061 225.659 131.125 236.125 131.125V116.125ZM221 109.25L232.667 99.8222C231.677 98.5969 231 97.0652 231 94.4375H216H201C201 103.31 203.657 111.653 209.333 118.678L221 109.25ZM216 94.4375H231C231 91.9421 231.639 91.3536 232.189 90.8883L222.5 79.4375L212.811 67.9867C204.694 74.8547 201 84.2663 201 94.4375H216ZM222.5 79.4375L232.145 90.9252C239.392 84.8406 248.761 79.5309 260.582 75.2154L255.438 61.125L250.293 47.0346C235.864 52.3025 223.275 59.201 212.855 67.9498L222.5 79.4375ZM255.438 61.125L260.608 75.2058C263.12 74.2832 264.934 73.6802 266.148 73.3278C266.756 73.1516 267.062 73.0824 267.136 73.0674C267.166 73.0613 267.061 73.0842 266.85 73.1112C266.662 73.1354 266.203 73.1875 265.562 73.1875V58.1875V43.1875C262.48 43.1875 259.415 44.0442 257.789 44.5159C255.629 45.1427 253.088 46.0084 250.267 47.0442L255.438 61.125ZM265.562 58.1875V73.1875C265.184 73.1875 264.435 73.113 263.529 72.7247L269.438 58.9375L275.346 45.1503C272.107 43.762 268.774 43.1875 265.562 43.1875V58.1875ZM269.438 58.9375L264.118 72.9625C264.281 73.0243 264.537 73.1418 264.889 73.3677L273 60.75L281.111 48.1323C279.129 46.8582 277.011 45.7674 274.757 44.9125L269.438 58.9375ZM273 60.75L264.55 73.1434C265.147 73.5508 264.775 73.4145 264.143 72.5814C263.448 71.6645 262.125 69.451 262.125 66.1875H277.125H292.125C292.125 56.3769 284.801 50.6413 281.45 48.3566L273 60.75ZM277.125 66.1875H262.125C262.125 63.5435 263.026 60.9976 264.547 59.0057C265.9 57.2342 267.316 56.4467 267.792 56.2086L274.5 69.625L281.208 83.0414C285.805 80.7432 292.125 75.4154 292.125 66.1875H277.125ZM274.5 69.625L267.389 56.4179C267.473 56.3726 267.535 56.3408 267.571 56.3228C267.59 56.3135 267.604 56.3066 267.613 56.3022C267.622 56.2979 267.627 56.2956 267.627 56.2954C267.627 56.2953 267.614 56.3018 267.584 56.315C267.555 56.3281 267.514 56.3463 267.46 56.3697C267.23 56.4691 266.865 56.6189 266.335 56.824L271.75 70.8125L277.165 84.801C278.503 84.2831 280.179 83.6034 281.611 82.8321L274.5 69.625ZM271.75 70.8125L266.335 56.824C264.618 57.4888 262.704 58.3269 260.657 59.2823L267 72.875L273.343 86.4677C275.046 85.6731 276.299 85.1362 277.165 84.801L271.75 70.8125ZM267 72.875L260.608 59.3053C254.742 62.0685 249.077 65.3877 243.612 69.2366L252.25 81.5L260.888 93.7634C265.006 90.8623 269.175 88.4315 273.392 86.4447L267 72.875ZM252.25 81.5L242.511 70.0915C240.348 71.9384 238.112 74.1058 236.303 76.5764C234.686 78.7859 232.125 82.9589 232.125 88.5H247.125H262.125C262.125 90.5007 261.641 92.0113 261.283 92.8674C260.927 93.7186 260.579 94.2026 260.509 94.2986C260.409 94.4358 260.736 93.9783 261.989 92.9085L252.25 81.5ZM247.125 88.5H232.125C232.125 93.3591 234.134 98.9672 239.373 102.671C243.658 105.7 248.231 106.062 250.75 106.062V91.0625V76.0625C250.852 76.0625 253.613 75.9981 256.69 78.1732C258.403 79.3845 259.916 81.0963 260.919 83.2235C261.885 85.2735 262.125 87.1635 262.125 88.5H247.125ZM250.75 91.0625V106.062C255.148 106.062 259.151 104.412 261.322 103.45C264.071 102.233 267.129 100.583 270.375 98.6675L262.75 85.75L255.125 72.8325C252.371 74.4585 250.429 75.4645 249.178 76.0184C248.557 76.2932 248.316 76.3625 248.379 76.344C248.422 76.3311 248.632 76.2706 248.978 76.2093C249.311 76.1504 249.926 76.0625 250.75 76.0625V91.0625ZM262.75 85.75C270.578 98.5455 270.578 98.5455 270.578 98.5455C270.578 98.5455 270.578 98.5455 270.578 98.5455C270.578 98.5454 270.578 98.5454 270.578 98.5454C270.578 98.5454 270.578 98.5453 270.578 98.5453C270.578 98.5453 270.578 98.5452 270.578 98.5452C270.578 98.5452 270.578 98.5451 270.579 98.5451C270.579 98.545 270.579 98.545 270.579 98.5449C270.579 98.5448 270.579 98.5448 270.579 98.5447C270.58 98.5445 270.58 98.5441 270.581 98.5437C270.584 98.5415 270.579 98.5447 270.583 98.5423C270.585 98.5413 270.587 98.5399 270.59 98.5384C270.598 98.5332 270.589 98.5385 270.599 98.5328C270.601 98.5316 270.607 98.5275 270.61 98.5257C270.612 98.5248 270.612 98.5246 270.614 98.5236C270.617 98.5216 270.614 98.5236 270.617 98.5215C270.619 98.5203 270.622 98.5183 270.625 98.5169C270.661 98.4947 270.621 98.5191 270.661 98.4947C270.667 98.4911 270.745 98.4433 270.765 98.4312C270.904 98.3462 270.69 98.4771 270.832 98.39C270.844 98.3826 270.857 98.3749 270.87 98.367C270.912 98.3412 270.867 98.3687 270.91 98.3424C270.942 98.3228 271.653 97.888 271.906 97.733C272.165 97.5744 272.338 97.4684 272.653 97.276C273.658 96.6611 272.506 97.3661 273.566 96.7174C274.378 96.2209 274.857 95.9274 275.89 95.2955L268.062 82.5L260.235 69.7045C260.03 69.8296 259.139 70.375 258.99 70.4662C258.787 70.5901 258.618 70.6936 258.429 70.809C258.426 70.8111 258.365 70.8481 258.362 70.85C258.319 70.8766 258.339 70.8643 258.296 70.8907C258.264 70.9103 258.196 70.9518 258.165 70.9709C258.131 70.9913 258.069 71.0294 258.036 71.0494C258.014 71.063 257.995 71.0746 257.973 71.0881C257.968 71.0913 257.947 71.1041 257.942 71.1073C257.936 71.1105 257.931 71.1137 257.926 71.1168C257.921 71.12 257.916 71.1232 257.91 71.1264C257.832 71.1742 257.497 71.379 257.433 71.4184C257.303 71.4978 257.113 71.614 256.997 71.685C256.875 71.7601 256.712 71.8595 256.603 71.9262C256.578 71.9414 256.581 71.9394 256.557 71.9545C256.525 71.9741 256.543 71.963 256.511 71.9825C256.491 71.9946 256.44 72.0257 256.421 72.0373C256.414 72.0417 256.254 72.1397 256.25 72.142C256.225 72.1572 255.95 72.3257 255.939 72.3324C255.82 72.405 255.774 72.4333 255.669 72.4975C255.46 72.6257 255.409 72.657 255.254 72.7514C255.187 72.7926 255.017 72.8964 255.005 72.9037C254.973 72.9232 254.961 72.9308 254.943 72.9418C254.937 72.9452 254.929 72.9501 254.927 72.9513C254.926 72.9522 254.924 72.9534 254.923 72.9537C254.923 72.9539 254.923 72.9542 254.922 72.9543C254.922 72.9544 254.922 72.9544 254.922 72.9544C254.922 72.9545 254.922 72.9545 254.922 72.9545C254.922 72.9545 254.922 72.9545 262.75 85.75ZM268.062 82.5L276.025 95.2121C280.174 92.6136 283.881 90.0106 286.932 87.4035L277.188 76L267.443 64.5965C265.91 65.906 263.535 67.6364 260.1 69.7879L268.062 82.5ZM277.188 76C291.528 80.3978 291.528 80.3978 291.528 80.3978C291.528 80.3978 291.528 80.3978 291.528 80.3977C291.528 80.3976 291.528 80.3974 291.528 80.3973C291.529 80.3971 291.529 80.3968 291.529 80.3966C291.529 80.3964 291.529 80.3963 291.529 80.3961C291.529 80.3959 291.529 80.3958 291.529 80.3956C291.529 80.3954 291.529 80.3952 291.529 80.395C291.529 80.3947 291.529 80.3945 291.529 80.3943C291.53 80.3928 291.529 80.3942 291.53 80.3927C291.53 80.3912 291.531 80.3906 291.531 80.3887C291.532 80.3873 291.537 80.3688 291.54 80.3612C291.55 80.3287 291.542 80.3541 291.554 80.3155C291.56 80.2953 291.556 80.3073 291.563 80.2857C291.564 80.2817 291.572 80.2569 291.573 80.2514C291.584 80.2175 291.574 80.2478 291.585 80.2125C291.591 80.1944 291.593 80.1885 291.599 80.169C291.606 80.1429 291.62 80.1004 291.629 80.0683C291.678 79.9104 291.652 79.9942 291.708 79.8119C291.719 79.7755 292.116 78.4812 292.247 78.0541C292.296 77.8953 292.573 76.9922 292.651 76.7357C292.809 76.2217 292.607 76.8805 292.766 76.3604C292.82 76.187 292.773 76.3407 292.826 76.1658C292.829 76.1576 292.831 76.1494 292.834 76.1412C292.836 76.133 292.839 76.1247 292.841 76.1165C292.844 76.1082 292.846 76.1 292.849 76.0917C292.851 76.0834 292.854 76.0751 292.856 76.0668C292.861 76.0529 292.883 75.981 292.887 75.9667C292.997 75.6086 293.028 75.5069 293.146 75.1244C293.172 75.038 293.153 75.1008 293.179 75.014C293.264 74.7367 293.111 75.2357 293.196 74.9583C293.28 74.6863 293.13 75.1746 293.214 74.9024C293.229 74.8525 293.233 74.8399 293.248 74.7897C293.283 74.6761 293.248 74.7898 293.283 74.6758C293.435 74.1793 293.201 74.9427 293.354 74.4446C293.372 74.3874 293.354 74.4435 293.372 74.3861C293.375 74.3763 293.378 74.3666 293.381 74.3568C293.384 74.347 293.387 74.3372 293.39 74.3273C293.435 74.1796 293.363 74.4161 293.408 74.2683C293.452 74.1245 293.382 74.3527 293.426 74.2089C293.592 73.6691 293.297 74.6294 293.463 74.0893C293.477 74.0422 293.485 74.016 293.5 73.9686C293.565 73.7551 293.453 74.1213 293.519 73.9078C293.537 73.8469 293.519 73.9076 293.537 73.8467C293.7 73.3174 293.413 74.2533 293.575 73.7237C293.63 73.5461 293.597 73.6533 293.652 73.4742C293.655 73.4637 293.658 73.4532 293.661 73.4427C293.664 73.4322 293.668 73.4216 293.671 73.4111C293.695 73.3324 293.666 73.4265 293.69 73.3477C293.859 72.7969 293.56 73.7713 293.729 73.2201C293.733 73.2094 293.736 73.1987 293.739 73.188C293.743 73.1773 293.746 73.1666 293.749 73.1559C293.782 73.0502 293.737 73.1971 293.769 73.0914C293.772 73.0806 293.776 73.0698 293.779 73.059C293.782 73.0482 293.786 73.0374 293.789 73.0266C293.792 73.0157 293.795 73.0049 293.799 72.9941C293.802 72.9832 293.805 72.9724 293.809 72.9615C293.933 72.5572 293.725 73.2351 293.849 72.8304C293.865 72.7766 293.853 72.8184 293.869 72.7645C293.898 72.669 293.86 72.7938 293.89 72.6983C293.939 72.5354 293.88 72.7281 293.93 72.5649C294.1 72.0108 293.802 72.985 293.972 72.4305C293.993 72.3621 293.971 72.4313 293.992 72.3628C294.018 72.2782 293.987 72.3796 294.013 72.2949C294.017 72.2835 294.02 72.2722 294.024 72.2608C294.027 72.2494 294.031 72.238 294.034 72.2266C294.081 72.0735 294.008 72.3114 294.055 72.1581C294.222 71.6131 293.972 72.4277 294.14 71.8812C294.201 71.6826 294.122 71.9399 294.183 71.741C294.237 71.5647 294.172 71.7762 294.226 71.5996C294.324 71.282 294.216 71.6327 294.314 71.3135C294.655 70.2012 294.062 72.1367 294.403 71.0228L280.062 66.625L265.722 62.2272C265.708 62.2721 265.691 62.3285 265.677 62.3731C265.672 62.3879 265.659 62.4308 265.655 62.4456C265.651 62.4577 265.647 62.4697 265.644 62.4817C265.64 62.4938 265.636 62.5058 265.633 62.5178C265.614 62.5799 265.563 62.7434 265.545 62.8039C265.483 63.0059 265.434 63.1665 265.374 63.3624C265.079 64.3228 265.501 62.9483 265.208 63.9026C265.205 63.9136 265.201 63.9247 265.198 63.9357C265.194 63.9468 265.191 63.9578 265.188 63.9688C265.177 64.0028 265.178 64.0008 265.167 64.0347C265.164 64.0457 265.161 64.0567 265.157 64.0676C265.154 64.0786 265.151 64.0895 265.147 64.1004C265.144 64.1113 265.141 64.1222 265.137 64.1331C265.134 64.144 265.131 64.1549 265.127 64.1658C265.111 64.219 265.123 64.1778 265.107 64.2309C265.104 64.2417 265.101 64.2525 265.097 64.2633C265.094 64.2741 265.091 64.2849 265.087 64.2957C265.067 64.3624 265.088 64.2936 265.068 64.3602C265.037 64.4583 265.078 64.3264 265.048 64.4244C265.045 64.4351 265.041 64.4458 265.038 64.4564C265.035 64.4671 265.032 64.4777 265.028 64.4884C265.022 64.5088 265.015 64.5317 265.009 64.552C265.001 64.577 264.977 64.6539 264.97 64.6785C264.967 64.689 264.964 64.6994 264.96 64.7099C264.957 64.7204 264.954 64.7308 264.951 64.7413C264.947 64.7517 264.944 64.7621 264.941 64.7726C264.938 64.783 264.935 64.7934 264.932 64.8038C264.868 65.0101 264.957 64.722 264.893 64.928C264.865 65.021 264.903 64.8967 264.875 64.9896C264.869 65.0085 264.861 65.0322 264.856 65.051C264.849 65.0717 264.843 65.0915 264.837 65.1121C264.834 65.1222 264.831 65.1324 264.828 65.1425C264.825 65.1526 264.821 65.1628 264.818 65.1729C264.815 65.183 264.812 65.1931 264.809 65.2032C264.806 65.2132 264.803 65.2233 264.8 65.2334C264.782 65.2913 264.799 65.2357 264.781 65.2936C264.778 65.3036 264.775 65.3136 264.772 65.3236C264.769 65.3336 264.766 65.3436 264.763 65.3535C264.76 65.3635 264.757 65.3735 264.754 65.3834C264.751 65.3933 264.748 65.4033 264.745 65.4132C264.594 65.9042 264.822 65.1594 264.672 65.6489C264.637 65.7644 264.636 65.7661 264.601 65.8801C264.319 66.7997 264.744 65.4152 264.464 66.3287C264.237 67.0693 264.425 66.4549 264.206 67.171C264.184 67.2418 263.984 67.8937 263.97 67.94C263.949 68.0066 263.879 68.2366 263.86 68.2971C263.851 68.3284 263.817 68.439 263.808 68.4688C263.799 68.4959 263.764 68.6103 263.756 68.6358C263.481 69.534 263.833 68.3847 263.565 69.2584C263.563 69.2662 263.523 69.3963 263.521 69.4026C263.52 69.4062 263.501 69.4697 263.5 69.473C263.494 69.4928 263.484 69.5227 263.478 69.5422C263.474 69.5579 263.441 69.6631 263.437 69.6773C263.435 69.6828 263.434 69.6883 263.432 69.6938C263.43 69.6993 263.429 69.7048 263.427 69.7103C263.419 69.7372 263.425 69.7162 263.417 69.7431C263.403 69.789 263.411 69.7622 263.397 69.8077C263.395 69.8131 263.394 69.8184 263.392 69.8237C263.39 69.829 263.389 69.8343 263.387 69.8396C263.386 69.8449 263.384 69.8502 263.382 69.8555C263.381 69.8607 263.379 69.866 263.378 69.8712C263.376 69.8765 263.374 69.8817 263.373 69.8869C263.371 69.8922 263.369 69.8974 263.368 69.9026C263.353 69.9519 263.373 69.8844 263.358 69.9336C263.357 69.9388 263.355 69.9439 263.354 69.949C263.352 69.9541 263.351 69.9593 263.349 69.9644C263.347 69.9721 263.342 69.9872 263.34 69.9948C263.331 70.0218 263.339 69.9982 263.33 70.025C263.317 70.0685 263.334 70.0115 263.321 70.0549C263.23 70.3511 263.34 69.9937 263.251 70.2838C263.1 70.7773 263.148 70.6204 263.026 71.0162C263.021 71.0322 262.987 71.1436 262.984 71.1535C262.956 71.247 262.975 71.1852 262.948 71.2726C262.879 71.4975 262.953 71.2551 262.892 71.4557C262.876 71.5064 262.886 71.4751 262.872 71.5198C262.865 71.5414 262.874 71.5117 262.868 71.5329C262.868 71.534 262.867 71.535 262.867 71.536C262.867 71.5371 262.866 71.5381 262.866 71.5391C262.866 71.5401 262.865 71.5411 262.865 71.542C262.865 71.543 262.865 71.544 262.864 71.5449C262.861 71.5547 262.864 71.5464 262.861 71.5558C262.86 71.559 262.859 71.5628 262.858 71.5655C262.857 71.5678 262.856 71.5722 262.855 71.5741C262.855 71.5749 262.854 71.5773 262.854 71.578C262.854 71.5786 262.854 71.5792 262.854 71.5798C262.853 71.5804 262.853 71.581 262.853 71.5816C262.847 71.6021 262.855 71.574 262.849 71.593C262.849 71.5952 262.848 71.5991 262.847 71.5999C262.847 71.6004 262.847 71.6014 262.847 71.6016C262.847 71.6017 262.847 71.6018 262.847 71.6018C262.847 71.6019 262.847 71.602 262.847 71.602C262.847 71.6021 262.847 71.6021 262.847 71.6021C262.847 71.6021 262.847 71.6022 277.188 76ZM280.062 66.625L294.361 71.1598C297.677 60.7046 301.196 52.6135 304.77 46.6007L291.875 38.9375L278.98 31.2743C273.887 39.8448 269.532 50.2121 265.764 62.0902L280.062 66.625ZM291.875 38.9375L305.176 45.8708C308.624 39.2571 311.569 35.3349 313.761 33.2436C315.885 31.2166 316.233 31.875 315 31.875V16.875V1.875C306.017 1.875 298.636 6.21049 293.052 11.5376C287.536 16.8005 282.793 23.9095 278.574 32.0042L291.875 38.9375ZM315 16.875V31.875C315.524 31.875 315.631 31.9257 315.43 31.8792C315.214 31.8294 314.596 31.6548 313.8 31.1575L321.75 18.4375L329.7 5.71753C324.818 2.66627 319.469 1.875 315 1.875V16.875ZM321.75 18.4375L313.8 31.1575C314.232 31.4273 313.682 31.1848 312.952 30.1708C312.095 28.9803 311.25 27.0607 311.25 24.6875H326.25H341.25C341.25 14.8202 334.561 8.7559 329.7 5.71753L321.75 18.4375ZM326.25 24.6875H311.25C311.25 25.083 311.176 25.8919 310.747 27.2017L325 31.875L339.253 36.5483C340.491 32.7748 341.25 28.792 341.25 24.6875H326.25ZM325 31.875L310.747 27.2017C310.222 28.8024 309.5 30.4704 308.544 32.2087L321.688 39.4375L334.831 46.6663C336.625 43.4046 338.112 40.0309 339.253 36.5483L325 31.875ZM321.688 39.4375L308.452 32.3787C307.441 34.2754 306.243 36.2084 304.843 38.176L317.062 46.875L329.282 55.574C331.382 52.6249 333.268 49.5996 334.923 46.4963L321.688 39.4375ZM317.062 46.875L305.101 37.8243L294.413 51.9493L306.375 61L318.337 70.0507L329.024 55.9257L317.062 46.875ZM306.375 61L294.558 51.7612C292.503 54.3892 290.63 57.019 288.96 59.6501L301.625 67.6875L314.29 75.7249C315.37 74.0226 316.663 72.1941 318.192 70.2388L306.375 61ZM301.625 67.6875L288.018 61.374C285.137 67.5845 283 74.3064 283 81.0625H298H313C313 80.402 313.28 78.2072 315.232 74.001L301.625 67.6875ZM298 81.0625H283C283 85.0991 283.653 90.8356 287.318 95.8794C291.629 101.813 298.033 104.062 303.812 104.062V89.0625V74.0625C304.554 74.0625 305.918 74.1919 307.524 74.9288C309.213 75.7036 310.607 76.8955 311.588 78.2456C313.315 80.6227 313 82.3593 313 81.0625H298ZM303.812 89.0625V104.062C309.175 104.062 313.696 101.63 315.99 100.297C318.901 98.6053 321.994 96.3532 325.151 93.8132L315.75 82.125L306.349 70.4368C303.756 72.5218 301.984 73.7384 300.916 74.3591C300.39 74.6647 300.292 74.6744 300.549 74.5781C300.694 74.524 301.03 74.4071 301.528 74.2985C302.018 74.1917 302.803 74.0625 303.812 74.0625V89.0625ZM315.75 82.125L325.448 93.5684L332.823 87.3184L323.125 75.875L313.427 64.4316L306.052 70.6816L315.75 82.125ZM323.125 75.875L333.107 87.0712C335.551 84.8925 337.39 83.8837 338.585 83.4412L333.375 69.375L328.165 55.3088C322.61 57.3663 317.616 60.6908 313.143 64.6788L323.125 75.875ZM333.375 69.375L338.841 83.3436C338.841 83.3437 338.829 83.3483 338.806 83.3565C338.784 83.3647 338.748 83.3773 338.699 83.3932C338.605 83.4237 338.442 83.4735 338.217 83.5281C337.827 83.623 336.93 83.8125 335.688 83.8125V68.8125V53.8125C332.32 53.8125 329.485 54.7895 327.909 55.4064L333.375 69.375ZM412.625 78.125L398.97 71.918L398.943 71.9753L398.918 72.0329L412.625 78.125ZM408.25 84.5L418.97 94.9919L419.025 94.9356L419.08 94.8786L408.25 84.5ZM401.625 90.625L391.91 79.1959L391.863 79.2362L391.816 79.277L401.625 90.625ZM392.938 97.3125L384.336 85.024L384.299 85.0495L384.263 85.0752L392.938 97.3125ZM369.25 110.438L363.591 96.5461L363.575 96.5525L363.559 96.5589L369.25 110.438ZM321.625 111L330.188 98.6845L330.177 98.6771L321.625 111ZM327.312 72.0625L317.698 60.5489L317.695 60.5518L327.312 72.0625ZM355.875 56.375L351.078 42.1626L351.067 42.1665L355.875 56.375ZM382.312 55.75L391.135 43.619L391.065 43.5678L390.994 43.5174L382.312 55.75ZM373.875 81.375L364.752 69.468L364.696 69.5111L364.64 69.5546L373.875 81.375ZM370.25 84L362.041 71.4455L361.985 71.4821L361.929 71.5192L370.25 84ZM368 85.5L359.679 73.0192L359.538 73.1138L359.398 73.2115L368 85.5ZM349 95.3125L343.116 81.5149L314.02 93.9231L342.04 108.6L349 95.3125ZM362.438 96.5625L358.187 82.1772L358.142 82.1906L358.097 82.2043L362.438 96.5625ZM375.938 90.6875L382.985 103.929L383.023 103.908L383.061 103.888L375.938 90.6875ZM383.875 86.0625L375.949 73.3275L375.937 73.335L375.925 73.3425L383.875 86.0625ZM399.375 74.6875L409.321 85.9163L409.449 85.8029L409.574 85.6865L399.375 74.6875ZM408.125 69.625L403.535 55.3446L403.333 55.4095L403.133 55.4801L408.125 69.625ZM342.25 86.625L327.806 90.6694L332.741 108.298L349.055 99.9924L342.25 86.625ZM345.688 84.875L352.493 98.2424L352.543 98.2171L352.592 98.1913L345.688 84.875ZM348.688 83.25L356.13 96.2736L356.143 96.2657L356.157 96.2578L348.688 83.25ZM363.438 68.875L352.049 78.6369L352.191 78.8031L352.338 78.9651L363.438 68.875ZM356.5 67.75L352.15 53.3946L352.088 53.4134L352.026 53.4328L356.5 67.75ZM352.438 69.5L359.307 82.8346L359.465 82.7534L359.62 82.6684L352.438 69.5ZM348.438 72.125L357.808 83.838L357.831 83.8197L357.854 83.8012L348.438 72.125ZM345.125 75.375L356.603 85.0314L356.66 84.9641L356.716 84.8961L345.125 75.375ZM411.188 69.0625V84.0625C409.388 84.0625 405.429 83.4751 402.226 79.8717C399.323 76.605 399.188 73.218 399.188 72.4375H414.188H429.188C429.188 69.407 428.552 64.3325 424.649 59.9408C420.446 55.2124 414.987 54.0625 411.188 54.0625V69.0625ZM414.188 72.4375H399.188C399.188 71.9512 399.229 71.585 399.263 71.3627C399.297 71.1393 399.331 71.0177 399.333 71.0107C399.335 71.0022 399.315 71.0751 399.255 71.2366C399.195 71.3969 399.104 71.6226 398.97 71.918L412.625 78.125L426.28 84.332C427.686 81.2405 429.188 77.0578 429.188 72.4375H414.188ZM412.625 78.125L398.918 72.0329C398.704 72.5134 398.286 73.2181 397.42 74.1214L408.25 84.5L419.08 94.8786C422.047 91.7819 424.546 88.2366 426.332 84.2171L412.625 78.125ZM408.25 84.5L397.53 74.0081C395.989 75.5825 394.127 77.312 391.91 79.1959L401.625 90.625L411.34 102.054C414.123 99.688 416.678 97.3342 418.97 94.9919L408.25 84.5ZM401.625 90.625L391.816 79.277C389.825 80.9974 387.35 82.9141 384.336 85.024L392.938 97.3125L401.539 109.601C405.192 107.044 408.508 104.503 411.434 101.973L401.625 90.625ZM392.938 97.3125L384.263 85.0752C381.415 87.0938 378.183 89.1496 374.543 91.2347L382 104.25L389.457 117.265C393.817 114.767 397.876 112.198 401.612 109.55L392.938 97.3125ZM382 104.25L374.543 91.2347C371.152 93.1774 367.506 94.951 363.591 96.5461L369.25 110.438L374.909 124.329C379.994 122.257 384.848 119.906 389.457 117.265L382 104.25ZM369.25 110.438L363.559 96.5589C355.133 100.014 347.418 101.562 340.312 101.562V116.562V131.562C351.873 131.562 363.45 129.028 374.941 124.316L369.25 110.438ZM340.312 116.562V101.562C335.938 101.562 332.765 100.476 330.188 98.6845L321.625 111L313.062 123.316C321.152 128.941 330.437 131.562 340.312 131.562V116.562ZM321.625 111L330.177 98.6771C328.738 97.6783 328.312 97.0239 328.246 96.9123C328.215 96.8596 328.23 96.874 328.246 96.9332C328.262 96.9913 328.25 96.9867 328.25 96.875H313.25H298.25C298.25 108.471 304.486 117.363 313.073 123.323L321.625 111ZM313.25 96.875H328.25C328.25 94.1927 329.531 89.7556 336.93 83.5732L327.312 72.0625L317.695 60.5518C306.344 70.036 298.25 82.1407 298.25 96.875H313.25ZM327.312 72.0625L336.927 83.5761C343.455 78.1252 351.307 73.7566 360.683 70.5835L355.875 56.375L351.067 42.1665C338.527 46.4101 327.337 52.4998 317.698 60.5489L327.312 72.0625ZM355.875 56.375L360.672 70.5874C366.512 68.6163 370.435 68 372.812 68V53V38C365.94 38 358.571 39.6337 351.078 42.1626L355.875 56.375ZM372.812 53V68C373.467 68 373.773 68.0796 373.829 68.096C373.858 68.1044 373.842 68.1018 373.794 68.0789C373.745 68.0556 373.688 68.0226 373.631 67.9826L382.312 55.75L390.994 43.5174C385.434 39.5716 379.086 38 372.812 38V53ZM382.312 55.75L373.49 67.881C373.202 67.672 372.567 67.1039 372.053 66.0978C371.536 65.0877 371.438 64.2168 371.438 63.8125H386.438H401.438C401.438 55.5957 397.732 48.4164 391.135 43.619L382.312 55.75ZM386.438 63.8125H371.438C371.438 62.3797 372.013 62.1644 371.097 63.4451C370.166 64.7463 368.257 66.7827 364.752 69.468L373.875 81.375L382.998 93.282C391.743 86.5818 401.438 76.7832 401.438 63.8125H386.438ZM373.875 81.375L364.64 69.5546C363.544 70.411 362.685 71.0247 362.041 71.4455L370.25 84L378.459 96.5545C379.982 95.5587 381.539 94.4224 383.11 93.1954L373.875 81.375ZM370.25 84L361.929 71.5192L359.679 73.0192L368 85.5L376.321 97.9808L378.571 96.4808L370.25 84ZM368 85.5L359.398 73.2115C356.508 75.2346 351.3 78.0247 343.116 81.5149L349 95.3125L354.884 109.11C363.7 105.35 371.159 101.599 376.602 97.7885L368 85.5ZM349 95.3125L342.04 108.6C346.157 110.756 350.993 112.375 356.312 112.375V97.375V82.375C356.724 82.375 356.926 82.4388 356.869 82.4226C356.802 82.4037 356.503 82.3096 355.96 82.025L349 95.3125ZM356.312 97.375V112.375C359.758 112.375 363.305 111.971 366.778 110.921L362.438 96.5625L358.097 82.2043C357.987 82.2376 357.45 82.375 356.312 82.375V97.375ZM362.438 96.5625L366.688 110.948C369.265 110.186 371.926 109.176 374.624 107.998L368.625 94.25L362.626 80.5019C360.741 81.3244 359.276 81.8555 358.187 82.1772L362.438 96.5625ZM368.625 94.25L374.624 107.998C377.326 106.819 380.115 105.456 382.985 103.929L375.938 90.6875L368.89 77.4463C366.593 78.6686 364.508 79.6807 362.626 80.5019L368.625 94.25ZM375.938 90.6875L383.061 103.888C385.981 102.312 388.903 100.609 391.825 98.7825L383.875 86.0625L375.925 73.3425C373.514 74.8494 371.144 76.2297 368.814 77.4872L375.938 90.6875ZM383.875 86.0625L391.801 98.7975C398.337 94.7299 404.205 90.4468 409.321 85.9163L399.375 74.6875L389.429 63.4587C385.795 66.6782 381.33 69.9784 375.949 73.3275L383.875 86.0625ZM399.375 74.6875L409.574 85.6865C410.092 85.2061 411.126 84.4728 413.117 83.7699L408.125 69.625L403.133 55.4801C398.041 57.2772 393.241 59.9189 389.176 63.6885L399.375 74.6875ZM408.125 69.625L412.715 83.9054C412.789 83.8816 412.703 83.9146 412.475 83.9563C412.252 83.9974 411.808 84.0625 411.188 84.0625V69.0625V54.0625C408.269 54.0625 405.639 54.6683 403.535 55.3446L408.125 69.625ZM342.25 86.625L349.055 99.9924L352.493 98.2424L345.688 84.875L338.882 71.5076L335.445 73.2576L342.25 86.625ZM345.688 84.875L352.592 98.1913C353.855 97.5367 355.039 96.8966 356.13 96.2736L348.688 83.25L341.245 70.2264C340.586 70.6034 339.77 71.0466 338.783 71.5587L345.688 84.875ZM348.688 83.25L356.157 96.2578C360.426 93.8062 363.901 91.7536 366.514 90.1292C368.53 88.8756 371.518 86.9966 373.475 85.1102L363.062 74.3125L352.65 63.5148C353.316 62.8733 353.684 62.6789 352.999 63.1508C352.523 63.4789 351.769 63.971 350.674 64.652C348.495 66.0068 345.365 67.8604 341.218 70.2422L348.688 83.25ZM363.062 74.3125L373.475 85.1102C374.298 84.3161 375.366 83.2247 376.336 81.9423C376.821 81.3015 377.527 80.2933 378.166 78.9925C378.719 77.8672 379.812 75.3563 379.812 72H364.812H349.812C349.812 68.852 350.833 66.5937 351.24 65.7653C351.733 64.7614 352.221 64.0943 352.414 63.839C352.801 63.3274 352.994 63.1839 352.65 63.5148L363.062 74.3125ZM364.812 72H379.812C379.812 68.8891 378.987 66.3081 378.225 64.5287L364.438 70.4375L350.65 76.3463C350.388 75.7336 349.812 74.1942 349.812 72H364.812ZM364.438 70.4375L378.225 64.5287C377.334 62.4501 376.103 60.5082 374.537 58.7849L363.438 68.875L352.338 78.9651C351.605 78.1584 351.041 77.2583 350.65 76.3463L364.438 70.4375ZM363.438 68.875L374.826 59.1131C372.072 55.8991 367.195 52.125 360.25 52.125V67.125V82.125C355.555 82.125 352.803 79.5175 352.049 78.6369L363.438 68.875ZM360.25 67.125V52.125C357.309 52.125 354.565 52.6627 352.15 53.3946L356.5 67.75L360.85 82.1054C361 82.06 361.024 82.0622 360.935 82.0772C360.845 82.0921 360.61 82.125 360.25 82.125V67.125ZM356.5 67.75L352.026 53.4328C349.649 54.1755 347.391 55.1665 345.255 56.3316L352.438 69.5L359.62 82.6684C360.234 82.3335 360.684 82.1578 360.974 82.0672L356.5 67.75ZM352.438 69.5L345.568 56.1654C343.227 57.3712 341.047 58.8155 339.021 60.4488L348.438 72.125L357.854 83.8012C358.412 83.3512 358.898 83.0454 359.307 82.8346L352.438 69.5ZM348.438 72.125L339.067 60.412C337.051 62.0245 335.193 63.8346 333.534 65.8539L345.125 75.375L356.716 84.8961C356.974 84.5821 357.324 84.2255 357.808 83.838L348.438 72.125ZM345.125 75.375L333.647 65.7186C330.77 69.1381 326.812 74.8601 326.812 82.1875H341.812H356.812C356.812 84.1043 356.27 85.3194 356.13 85.6062C355.989 85.8978 356.032 85.7112 356.603 85.0314L345.125 75.375ZM341.812 82.1875H326.812C326.812 84.5923 326.966 87.6716 327.806 90.6694L342.25 86.625L356.694 82.5806C356.78 82.8856 356.821 83.1004 356.838 83.1968C356.855 83.2964 356.855 83.3233 356.85 83.2626C356.844 83.204 356.834 83.0856 356.826 82.8994C356.818 82.7143 356.812 82.4786 356.812 82.1875H341.812Z" fill="white" mask="url(#path-1-outside-1_4_2)"/>
</svg>
